<svg width="155" height="119" viewBox="0 0 155 119" fill="none" xmlns="http://www.w3.org/2000/svg">
<ellipse cx="77.5" cy="102.682" rx="77.5" ry="16" fill="#5AC09B" fill-opacity="0.25"/>
<circle cx="50.5" cy="44.1816" r="22.5" fill="#FBDE00"/>
<path d="M60.08 80.5117C67.81 88.2417 78.08 92.6917 89.01 93.0617C89.49 93.0816 89.97 93.0817 90.44 93.0817C101.8 93.0817 112.82 88.5417 120.86 80.5017C128.98 72.3817 133.45 61.5917 133.45 50.1117C133.45 38.6317 128.98 27.8417 120.86 19.7217C112.37 11.2317 101.06 6.79166 89.01 7.19166C86.6 7.27166 84.22 7.55166 81.94 8.01166L81.71 8.07166C79.25 8.88166 78.21 10.3517 77.77 11.4317C76.82 13.7817 77.82 16.3017 78.54 17.6617L78.69 17.9217C78.75 18.0117 78.81 18.1117 78.86 18.2017L78.92 18.3517L78.96 18.4017C81.89 24.2117 80.77 31.1717 76.16 35.7817C71.37 40.5717 63.92 41.5517 58.04 38.1717L55.04 36.4417V37.2517C54.13 37.1617 53.24 37.2817 52.39 37.5917C49.88 38.5117 48.69 40.9117 48.39 41.6317L48.27 42.0417C45.6 56.0617 50.01 70.4417 60.06 80.4917L60.08 80.5117ZM52.17 43.0417C52.37 42.6417 52.91 41.6917 53.78 41.3717C54.41 41.1417 55.21 41.2617 56.15 41.7417L56.54 41.9417C56.83 42.1017 57.13 42.2417 57.42 42.3917L60.15 43.7717L60.05 43.4017C66.64 45.3817 73.96 43.6617 78.98 38.6417C84.6 33.0217 86.12 24.6417 82.92 17.4617L83.07 17.2117L82.31 16.2217C82.24 16.1017 82.18 15.9917 82.11 15.8817L82.03 15.7517C81.44 14.6317 81.22 13.5517 81.47 12.9517C81.64 12.5317 82.1 12.1917 82.84 11.9217C84.87 11.5217 86.99 11.2817 89.14 11.2117C100.07 10.8317 110.33 14.8717 118.03 22.5717C125.39 29.9317 129.45 39.7217 129.45 50.1317C129.45 60.5417 125.4 70.3317 118.03 77.6917C110.32 85.4017 100.05 89.4517 89.14 89.0817C79.23 88.7417 69.91 84.7017 62.9 77.6917C53.84 68.6317 49.84 55.7017 52.16 43.0517L52.17 43.0417Z" fill="#4677BC"/>
<path d="M66.71 66.2316C69.04 65.6016 70.99 64.1116 72.2 62.0216C73.41 59.9316 73.73 57.4916 73.1 55.1616C71.81 50.3516 66.84 47.4816 62.03 48.7716C59.7 49.3916 57.75 50.8916 56.54 52.9816C55.33 55.0716 55.01 57.5116 55.64 59.8416C56.26 62.1716 57.76 64.1216 59.85 65.3316C61.24 66.1316 62.79 66.5416 64.35 66.5416C65.14 66.5416 65.93 66.4416 66.7 66.2316H66.71ZM60.85 63.6016C59.22 62.6616 58.06 61.1416 57.57 59.3316C57.08 57.5116 57.33 55.6216 58.27 53.9916C59.21 52.3616 60.73 51.2016 62.54 50.7116C66.29 49.7116 70.16 51.9416 71.16 55.6916C71.65 57.5116 71.4 59.4016 70.46 61.0316C69.52 62.6616 68 63.8216 66.18 64.3116C64.37 64.8016 62.47 64.5516 60.84 63.6116L60.85 63.6016Z" fill="#4677BC"/>
<path d="M74.4201 80.3516C75.6301 82.4416 77.5801 83.9416 79.9101 84.5616C80.6901 84.7716 81.4801 84.8716 82.2601 84.8716C84.5101 84.8716 86.7101 84.0216 88.4101 82.4316C89.6501 81.2716 90.5401 79.8016 90.9801 78.1716C91.8401 74.9416 90.8601 71.5116 88.4101 69.2216C87.3301 68.2116 86.0101 67.4816 84.5801 67.1016C79.7701 65.8116 74.8001 68.6816 73.5101 73.4916C72.8901 75.8216 73.2101 78.2616 74.4101 80.3516H74.4201ZM75.4501 74.0116C76.4601 70.2616 80.3201 68.0316 84.0701 69.0316C85.1901 69.3316 86.1901 69.8816 87.0501 70.6816C88.9601 72.4616 89.7201 75.1416 89.0501 77.6516C88.7101 78.9216 88.0201 80.0616 87.0501 80.9716C85.2601 82.6416 82.7801 83.2616 80.4301 82.6316C78.6101 82.1416 77.0901 80.9816 76.1501 79.3516C75.2101 77.7216 74.9601 75.8216 75.4501 74.0116Z" fill="#4677BC"/>
<path d="M107 61.2416C104.59 61.2416 102.31 62.1816 100.61 63.8916C97.09 67.4116 97.09 73.1516 100.61 76.6716C102.32 78.3816 104.59 79.3216 107 79.3216C109.41 79.3216 111.68 78.3816 113.39 76.6716C115.1 74.9616 116.04 72.6916 116.04 70.2816C116.04 67.8716 115.1 65.6016 113.39 63.8916C111.68 62.1816 109.41 61.2416 107 61.2416ZM111.98 75.2616C110.65 76.5916 108.88 77.3216 107 77.3216C105.12 77.3216 103.35 76.5916 102.02 75.2616C99.28 72.5216 99.28 68.0516 102.02 65.3016C103.35 63.9716 105.12 63.2416 107 63.2416C108.88 63.2416 110.65 63.9716 111.98 65.3016C113.31 66.6316 114.04 68.4016 114.04 70.2816C114.04 72.1616 113.31 73.9316 111.98 75.2616Z" fill="#4677BC"/>
<path d="M106.31 48.8917C107.39 52.9217 111.05 55.5917 115.04 55.5917C115.81 55.5917 116.6 55.4917 117.38 55.2817C119.71 54.6617 121.66 53.1617 122.87 51.0717C124.08 48.9817 124.4 46.5417 123.77 44.2117C122.48 39.4017 117.52 36.5317 112.7 37.8217C107.89 39.1117 105.02 44.0817 106.31 48.8917ZM113.22 39.7517C116.97 38.7517 120.84 40.9817 121.84 44.7317C122.33 46.5517 122.08 48.4417 121.14 50.0717C120.2 51.7017 118.68 52.8617 116.87 53.3517C113.12 54.3517 109.25 52.1217 108.25 48.3717C107.25 44.6217 109.48 40.7517 113.23 39.7517H113.22Z" fill="#4677BC"/>
<path d="M94.84 36.6616C95.62 36.8716 96.41 36.9716 97.2 36.9716C98.77 36.9716 100.31 36.5616 101.7 35.7616C103.79 34.5516 105.29 32.6016 105.91 30.2716C107.2 25.4616 104.33 20.4916 99.52 19.2016C94.71 17.9116 89.74 20.7816 88.45 25.6016C87.83 27.9316 88.15 30.3716 89.35 32.4616C90.56 34.5516 92.51 36.0516 94.84 36.6716V36.6616ZM90.38 26.1116C91.39 22.3616 95.25 20.1216 99 21.1316C102.75 22.1316 104.98 26.0016 103.98 29.7516C103.49 31.5716 102.33 33.0916 100.7 34.0316C99.07 34.9716 97.18 35.2216 95.36 34.7316C93.54 34.2416 92.02 33.0816 91.08 31.4516C90.14 29.8216 89.89 27.9316 90.38 26.1116Z" fill="#4677BC"/>
<path d="M35.86 1.65165L35.22 2.42165L35.19 2.40165L35.8 1.61165L34.59 0.69165L33.38 1.60165C32.92 1.94165 22 10.3017 22 21.0117C22 28.2216 24.51 31.6017 27.81 33.1317C27.68 33.8717 27.56 34.5917 27.46 35.2917C26.24 43.4017 25.91 52.6717 26.53 61.4117C28.59 90.5617 30.22 98.2317 34.45 98.6917L36.67 98.9417V97.9216C39.91 95.5916 41.04 85.8417 42.57 61.1817C43.11 52.4817 42.81 43.2217 41.73 35.1117L41.47 33.3817H41.45C41.44 33.3017 41.42 33.2217 41.41 33.1317C44.68 31.5917 47.18 28.2216 47.18 21.0117C47.17 10.6817 37.04 2.56165 35.86 1.65165ZM38.57 60.9317C37.92 71.3217 36.76 90.1317 34.71 94.0816C32.53 89.5716 31.13 69.8917 30.51 61.1317C29.91 52.6817 30.23 43.7216 31.41 35.8917C31.49 35.3316 31.58 34.7717 31.68 34.1917C32.67 34.3116 33.67 34.3617 34.65 34.3617H34.66C35.6 34.3617 36.56 34.3117 37.51 34.2017C37.58 34.6817 37.65 35.1617 37.72 35.6617L37.96 37.3917H37.97C38.84 44.8217 39.05 53.1116 38.56 60.9417L38.57 60.9317ZM42.73 22.6317C43 22.1917 43.12 21.6716 43.17 21.0917C43.15 28.8917 40.28 30.3316 34.58 30.3517C28.89 30.3517 25.99 28.9016 25.99 21.0117C25.99 20.1917 26.08 19.3917 26.24 18.6017C26.83 18.9216 27.48 19.1017 28.18 19.1317C30.93 19.2217 31.84 16.7717 32.44 15.1517C32.76 14.2917 33.12 13.3117 33.43 13.2717C33.93 13.5217 34.74 15.6716 35.27 17.0917C36.47 20.2817 37.81 23.8617 40.39 23.8617C40.59 23.8617 40.8 23.8417 41.02 23.7917C41.76 23.6317 42.35 23.2317 42.72 22.6217L42.73 22.6317ZM40.34 16.2717C40.83 18.0317 41.57 20.7017 41.02 21.5917C40.96 21.6917 40.87 21.7917 40.62 21.8417C39.29 22.1117 38.06 18.8116 37.15 16.3917C36.08 13.5417 35.24 11.2817 33.53 11.2817C33.5 11.2817 33.47 11.2817 33.44 11.2817C31.71 11.3617 31.08 13.0717 30.57 14.4517C29.89 16.2917 29.44 17.1716 28.25 17.1217C27.35 17.0917 26.63 16.6216 26.05 15.6817C28.17 10.2017 32.92 5.88165 34.59 4.47165C35.78 5.46165 38.5 7.90165 40.74 11.2116C40.52 11.2717 40.3 11.4016 40.12 11.5816C39.27 12.4216 39.7 13.9517 40.34 16.2717Z" fill="#4677BC"/>
</svg>
