<svg width="155" height="131" viewBox="0 0 155 131" fill="none" xmlns="http://www.w3.org/2000/svg">
<ellipse cx="77.5" cy="114.682" rx="77.5" ry="16" fill="#5AC09B" fill-opacity="0.25"/>
<circle cx="94" cy="24.6816" r="24" fill="#FBDE00"/>
<path d="M35.8786 117.454H117.052C117.853 117.454 118.5 116.806 118.5 116.005V70.2604C118.5 69.4589 117.853 68.8119 117.052 68.8119H35.8786C35.0772 68.8119 34.4302 69.4589 34.4302 70.2604V116.005C34.4302 116.806 35.0772 117.454 35.8786 117.454ZM115.603 71.7088V114.557H37.3271V71.7088H115.603Z" fill="#4677BC" stroke="#4677BC"/>
<path d="M103.74 70.2604C103.74 77.5989 109.713 83.5718 117.052 83.5718C117.853 83.5718 118.5 82.9248 118.5 82.1234V70.2604C118.5 69.4589 117.853 68.8119 117.052 68.8119H105.189C104.387 68.8119 103.74 69.4589 103.74 70.2604ZM115.603 71.7088V80.572C111.014 79.9341 107.378 76.298 106.74 71.7088H115.603Z" fill="#4677BC" stroke="#4677BC"/>
<path d="M34.4302 82.1234C34.4302 82.9248 35.0772 83.5718 35.8786 83.5718C43.2171 83.5718 49.1901 77.5989 49.1901 70.2604C49.1901 69.4589 48.543 68.8119 47.7416 68.8119H35.8786C35.0772 68.8119 34.4302 69.4589 34.4302 70.2604V82.1234ZM46.19 71.7088C45.5515 76.2861 41.9153 79.9332 37.3271 80.5719V71.7088H46.19Z" fill="#4677BC" stroke="#4677BC"/>
<path d="M35.8786 117.453H47.7708C48.5722 117.453 49.2192 116.806 49.2192 116.005C49.2192 115.89 49.2037 115.784 49.1891 115.704C49.0299 108.507 43.1266 102.694 35.8786 102.694C35.0772 102.694 34.4302 103.341 34.4302 104.142V116.005C34.4302 116.806 35.0772 117.453 35.8786 117.453ZM37.3271 105.694C41.9044 106.332 45.5515 109.968 46.1902 114.557H37.3271V105.694Z" fill="#4677BC" stroke="#4677BC"/>
<path d="M105.189 117.453H117.052C117.853 117.453 118.5 116.806 118.5 116.005V104.142C118.5 103.341 117.853 102.694 117.052 102.694C109.713 102.694 103.74 108.667 103.74 116.005C103.74 116.806 104.387 117.453 105.189 117.453ZM115.603 105.693V114.557H106.74C107.378 109.967 111.014 106.331 115.603 105.693Z" fill="#4677BC" stroke="#4677BC"/>
<path d="M61.4392 93.1254C61.4392 101.412 68.1703 108.159 76.4579 108.159C84.7448 108.159 91.4911 101.412 91.4911 93.1254C91.4911 84.8385 84.7448 78.0922 76.4579 78.0922C68.1703 78.0922 61.4392 84.8391 61.4392 93.1254ZM64.3361 93.14C64.3361 86.441 69.7742 81.0037 76.4579 81.0037C83.1565 81.0037 88.5942 86.4413 88.5942 93.14C88.5942 99.8383 83.1423 105.276 76.4579 105.276C69.7742 105.276 64.3361 99.839 64.3361 93.14Z" fill="#4677BC" stroke="#4677BC"/>
<path d="M77.8933 94.9575L77.8932 94.9576L77.8995 94.965C78.0502 95.144 78.1321 95.3626 78.1321 95.6498C78.1321 95.9767 78.0325 96.2421 77.831 96.4895C77.7631 96.5633 77.6915 96.6286 77.6146 96.6861V94.7163C77.7353 94.7915 77.8237 94.8716 77.8933 94.9575ZM75.3305 89.01V90.0126C75.246 89.8645 75.207 89.7061 75.207 89.5359C75.207 89.339 75.2472 89.1635 75.3305 89.01ZM77.6146 89.2237C77.6508 89.3192 77.681 89.4237 77.7053 89.5378L77.8013 89.989L78.2588 89.9296L80.5059 89.6378L81.0199 89.571L80.9347 89.0597C80.7729 88.089 80.3475 87.2567 79.7056 86.6486L79.7056 86.6485L79.7004 86.6438C79.1477 86.1347 78.4574 85.8011 77.6146 85.636V85.1876V84.6876H77.1146H75.8305H75.3305V85.1876V85.6296C74.4218 85.7982 73.6519 86.1938 73.0409 86.8621C72.3349 87.6195 71.9891 88.5761 71.9891 89.638C71.9891 90.6842 72.2811 91.6163 72.902 92.3882C73.4622 93.0847 74.2852 93.6037 75.3305 93.9484V96.1886C75.1346 95.925 74.9903 95.6054 74.9212 95.2366L74.8349 94.7764L74.37 94.8323L72.0646 95.1096L71.5461 95.1719L71.6309 95.6872C71.8325 96.912 72.275 97.9063 72.9924 98.6403L72.9923 98.6404L73.0005 98.6484C73.6348 99.2683 74.4226 99.653 75.3305 99.8379V101.049V101.549H75.8305H77.1146H77.6146V101.049V99.8122C78.6763 99.5724 79.5508 99.0998 80.2021 98.3606C80.9497 97.529 81.3063 96.5014 81.3063 95.3288C81.3063 94.2821 81.0359 93.3679 80.4147 92.6565C79.8527 91.971 78.8821 91.4717 77.6146 91.0974V89.2237Z" stroke="#4677BC"/>
<path d="M106.469 54.0019L106.469 54.0025C102.298 58.1871 96.2695 60.3342 88.496 60.3342C85.6247 60.3342 82.5169 60.0241 79.2502 59.4274C77.0134 47.2791 78.9433 37.9132 84.6759 32.1946L84.6769 32.1936C88.8473 28.009 94.8763 25.862 102.65 25.862C105.507 25.862 108.628 26.172 111.896 26.7687C114.132 38.9164 112.203 48.2687 106.469 54.0019ZM76.5947 60.9596C76.7067 61.5381 77.1541 61.9857 77.7325 62.098C81.524 62.8475 85.1463 63.2311 88.496 63.2311H88.5106C96.9954 63.2311 103.746 60.8383 108.533 56.0519C115.223 49.3766 117.252 38.6679 114.566 25.2511C114.454 24.6721 114.005 24.2242 113.426 24.1124C109.621 23.3631 105.999 22.9796 102.65 22.9796C94.1648 22.9796 87.4137 25.3725 82.627 30.159C75.9369 36.8343 73.9088 47.5284 76.5947 60.9596Z" fill="#4677BC" stroke="#4677BC"/>
<path d="M72.5937 40.037L72.5945 40.0378C77.2991 44.7425 78.7155 52.2255 76.8463 61.5583C76.7341 62.137 76.2862 62.5847 75.7074 62.6966C75.7069 62.6967 75.7065 62.6967 75.706 62.6968L75.6116 62.2058L72.5937 40.037ZM72.5937 40.037C69.2085 36.6669 64.4718 34.9886 58.5394 34.9886C56.2114 34.9886 53.6986 35.2554 51.0751 35.7712L72.5937 40.037ZM56.2528 56.3667L56.2512 56.3652C52.5025 52.6302 51.1874 46.4887 52.5938 38.429C60.6104 37.0233 66.7809 38.3376 70.5305 42.0729C74.2802 45.8228 75.5948 51.9657 74.1742 60.011C72.0792 60.3868 70.094 60.5677 68.2428 60.5677C63.0217 60.5677 59.0071 59.135 56.2528 56.3667Z" fill="#4677BC" stroke="#4677BC"/>
<path d="M77.0015 61.7053L77.0015 61.7054L77.009 61.7123C77.2899 61.9716 77.644 62.1075 78.0047 62.1075C78.3901 62.1075 78.764 61.9493 79.0441 61.6692L79.0442 61.6693L79.0516 61.6615L102.587 37.09C102.587 37.0897 102.588 37.0895 102.588 37.0893C103.145 36.5088 103.12 35.5946 102.544 35.0406C101.964 34.4825 101.049 34.5072 100.495 35.0836L100.494 35.0843L76.9585 59.6559C76.9583 59.6561 76.958 59.6564 76.9578 59.6566C76.4004 60.237 76.4253 61.1512 77.0015 61.7053Z" fill="#4677BC" stroke="#4677BC"/>
<path d="M75.0242 70.2603C75.0242 71.0618 75.6712 71.7088 76.4726 71.7088C77.2741 71.7088 77.9211 71.0618 77.9211 70.2603V19.4815C77.9211 18.6801 77.2741 18.0331 76.4726 18.0331C75.6712 18.0331 75.0242 18.6801 75.0242 19.4815V70.2603Z" fill="#4677BC" stroke="#4677BC"/>
<path d="M92.5815 46.9176H93.0815V46.8141C93.6655 46.5938 94.069 46.0063 94.0137 45.3406C94.0137 45.3405 94.0137 45.3403 94.0137 45.3401L92.9194 31.9022L92.9194 31.9022L92.9192 31.9001C92.8533 31.1306 92.1567 30.4962 91.3499 30.5843C90.5721 30.6548 89.9739 31.3429 90.0404 32.1443C90.0404 32.1445 90.0404 32.1446 90.0405 32.1448L91.1347 45.5827L91.135 45.5861C91.2016 46.3407 91.8413 46.9176 92.5815 46.9176Z" fill="#4677BC" stroke="#4677BC"/>
<path d="M83.5641 56.3147H84.0641V56.2502L98.2306 54.0036C99.0133 53.8894 99.5679 53.1387 99.4377 52.3528C99.3215 51.5477 98.5624 51.0164 97.7827 51.1481L83.3432 53.438C82.559 53.5524 82.0039 54.3056 82.1368 55.093C82.2499 55.8054 82.8707 56.3147 83.5641 56.3147Z" fill="#4677BC" stroke="#4677BC"/>
<path d="M74.3752 62.2603L74.3752 62.2604L74.3823 62.2675C74.6624 62.5476 75.0364 62.7058 75.4217 62.7058C75.7824 62.7058 76.1365 62.5699 76.4175 62.3106L76.4175 62.3106L76.4249 62.3036C77.0012 61.7494 77.026 60.8349 76.4681 60.2544C76.4681 60.2543 76.468 60.2543 76.4679 60.2542L60.2277 43.3427L60.2275 43.3425C59.6732 42.7661 58.7585 42.7414 58.1781 43.2995C57.6017 43.8537 57.5769 44.7682 58.1348 45.3486C58.1348 45.3487 58.1349 45.3487 58.1349 45.3488C58.135 45.3488 58.135 45.3488 58.135 45.3489L74.3752 62.2603Z" fill="#4677BC" stroke="#4677BC"/>
<path d="M56.0296 52.0097L56.0299 52.0106C56.2525 52.5895 56.8073 52.944 57.3867 52.944C57.5533 52.944 57.7163 52.9219 57.8978 52.8538L57.8987 52.8535L63.8959 50.5918L63.8959 50.5918L63.898 50.591C64.6464 50.3048 65.0314 49.4794 64.7409 48.7197C64.4553 47.9725 63.6154 47.5853 62.8687 47.8771L56.8746 50.1376L56.8746 50.1376L56.8725 50.1384C56.1241 50.4246 55.7391 51.25 56.0296 52.0097Z" fill="#4677BC" stroke="#4677BC"/>
<path d="M69.9515 57.0872L69.9654 57.088H69.9793H69.9793H69.9794H69.9795H69.9796H69.9797H69.9798H69.9799H69.98H69.9801H69.9801H69.9802H69.9803H69.9804H69.9805H69.9806H69.9807H69.9808H69.9809H69.981H69.9811H69.9812H69.9813H69.9814H69.9815H69.9816H69.9817H69.9818H69.9819H69.982H69.9821H69.9822H69.9823H69.9824H69.9825H69.9826H69.9827H69.9828H69.983H69.9831H69.9832H69.9833H69.9834H69.9835H69.9836H69.9837H69.9838H69.984H69.9841H69.9842H69.9843H69.9844H69.9845H69.9846H69.9848H69.9849H69.985H69.9851H69.9852H69.9854H69.9855H69.9856H69.9857H69.9858H69.986H69.9861H69.9862H69.9863H69.9864H69.9866H69.9867H69.9868H69.9869H69.9871H69.9872H69.9873H69.9874H69.9876H69.9877H69.9878H69.988H69.9881H69.9882H69.9883H69.9885H69.9886H69.9887H69.9889H69.989H69.9891H69.9893H69.9894H69.9895H69.9897H69.9898H69.9899H69.9901H69.9902H69.9903H69.9905H69.9906H69.9907H69.9909H69.991H69.9911H69.9913H69.9914H69.9916H69.9917H69.9918H69.992H69.9921H69.9923H69.9924H69.9925H69.9927H69.9928H69.993H69.9931H69.9932H69.9934H69.9935H69.9937H69.9938H69.994H69.9941H69.9942H69.9944H69.9945H69.9947H69.9948H69.995H69.9951H69.9953H69.9954H69.9955H69.9957H69.9958H69.996H69.9961H69.9963H69.9964H69.9966H69.9967H69.9969H69.997H69.9972H69.9973H69.9975H69.9976H69.9978H69.9979H69.9981H69.9982H69.9984H69.9985H69.9987H69.9988H69.999H69.9991H69.9993H69.9994H69.9996H69.9997H69.9999H70H70.0002H70.0003H70.0005H70.0006H70.0008H70.0009H70.0011H70.0012H70.0014H70.0015H70.0017H70.0018H70.002H70.0021H70.0023H70.0024H70.0026H70.0028H70.0029H70.0031H70.0032H70.0034H70.0035H70.0037H70.0038H70.004H70.0041H70.0043H70.0044H70.0046H70.0048H70.0049H70.0051H70.0052H70.0054H70.0055H70.0057H70.0058H70.006H70.0061H70.0063H70.0064H70.0066H70.0068H70.0069H70.0071H70.0072H70.0074H70.0075H70.0077H70.0078H70.008H70.0081H70.0083H70.0084H70.0086H70.0087H70.0089H70.0091H70.0092H70.0094H70.0095H70.0097H70.0098H70.01H70.0101H70.0103H70.0104H70.0106H70.0107H70.0109H70.011H70.0112H70.0113H70.0115H70.0116H70.0118H70.012H70.0121H70.0123H70.0124H70.0126H70.0127H70.0129H70.013H70.0132H70.0133H70.0135H70.0136H70.0138H70.0139H70.0141H70.0142H70.0144H70.0145H70.0147H70.0148H70.015H70.0151H70.0153H70.0154H70.0155H70.0157H70.0158H70.016H70.0161H70.0163H70.0164H70.0166H70.0167H70.0169H70.017H70.0172H70.0173H70.0174H70.0176H70.0177H70.0179H70.018H70.0182H70.0183H70.0185H70.0186H70.0187H70.0189H70.019H70.0192H70.0193H70.0194H70.0196H70.0197H70.0199H70.02H70.0201H70.0203H70.0204H70.0206H70.0207H70.0208H70.021H70.0211H70.0213H70.0214H70.0215H70.0217H70.0218H70.0219H70.0221H70.0222H70.0223H70.0225H70.0226H70.0227H70.0229H70.023H70.0231H70.0233H70.0234H70.0235H70.0237H70.0238H70.0239H70.024H70.0242H70.0243H70.0244H70.0246H70.0247H70.0248H70.0249H70.0251H70.0252H70.0253H70.0254H70.0256H70.0257H70.0258H70.0259H70.0261H70.0262H70.0263H70.0264H70.0265H70.0267H70.0268H70.0269H70.027H70.0271H70.0273H70.0274H70.0275H70.0276H70.0277H70.0278H70.028H70.0281H70.0282H70.0283H70.0284H70.0285H70.0286H70.0287H70.0289H70.029H70.0291H70.0292H70.0293H70.0294H70.0295H70.0296H70.0297H70.0298H70.0299H70.03H70.0301H70.0302H70.0304H70.0305H70.0306H70.0307H70.0308H70.0309H70.031H70.0311H70.0312H70.0313H70.0313H70.0314H70.0315H70.0316H70.0317H70.0318H70.0319H70.032H70.0321H70.0322H70.0323H70.0324H70.0325H70.0326H70.0326H70.0327H70.0328H70.0329H70.033H70.0331H70.0332H70.0332H70.0333H70.0334H70.0335H70.0336H70.0336H70.0337H70.0338H70.0339H70.034H70.034H70.0341H70.0342H70.0343H70.0343H70.0344H70.0345H70.0346H70.0346H70.0347H70.0348H70.0348H70.0349H70.035H70.035H70.0351H70.0352H70.0352H70.0353H70.0354H70.0354H70.0355H70.0355H70.0356H70.0357H70.0357H70.0358H70.0358H70.0359H70.0359H70.036H70.036H70.0361H70.0361H70.0362H70.0362H70.0363H70.0363H70.0364H70.0364H70.0365H70.0365H70.0366H70.0366H70.0367H70.0367H70.0367H70.0368H70.0368H70.0369H70.0369H70.0369H70.037H70.037H70.037H70.0371H70.0371H70.0371H70.0372H70.0372H70.0372H70.0372H70.0373H70.0373H70.0373H70.0373H70.0374H70.0374H70.0374H70.0374H70.0374H70.0375H70.0375H70.0375H70.0375H70.0375H70.0375H70.0376H70.0376H70.0376H70.0376H70.0376H70.0376H70.0376H70.0376C70.7946 57.088 71.4394 56.4918 71.4851 55.7289C71.4851 55.7284 71.4852 55.7278 71.4852 55.7273L72.0687 46.7419L72.0687 46.7419L72.069 46.7372C72.1129 45.9462 71.5195 45.2523 70.7143 45.2038C69.9017 45.14 69.2192 45.7702 69.1737 46.5624L68.5902 55.5488L68.5902 55.5488L68.5899 55.5534C68.5459 56.3466 69.1428 57.0423 69.9515 57.0872Z" fill="#4677BC" stroke="#4677BC"/>
<path d="M37.436 32.4535C37.436 35.1226 39.6006 37.2872 42.2697 37.2872C44.9367 37.2872 47.118 35.1248 47.118 32.4535C47.118 29.7821 44.9367 27.6198 42.2697 27.6198C39.6006 27.6198 37.436 29.7843 37.436 32.4535ZM40.3329 32.4389C40.3329 31.3726 41.2035 30.5021 42.2697 30.5021C43.3526 30.5021 44.2211 31.3745 44.2211 32.4389C44.2211 33.5013 43.3399 34.3757 42.2697 34.3757C41.2035 34.3757 40.3329 33.5052 40.3329 32.4389Z" fill="#4677BC" stroke="#4677BC"/>
<path d="M105.71 8.59625C105.71 11.2654 107.875 13.43 110.544 13.43C113.213 13.43 115.378 11.2654 115.378 8.59625C115.378 5.92708 113.213 3.76254 110.544 3.76254C107.875 3.76254 105.71 5.92708 105.71 8.59625ZM108.607 8.58166C108.607 7.51537 109.478 6.64486 110.544 6.64486C111.61 6.64486 112.481 7.51537 112.481 8.58166C112.481 9.64794 111.61 10.5185 110.544 10.5185C109.478 10.5185 108.607 9.64794 108.607 8.58166Z" fill="#4677BC" stroke="#4677BC"/>
<path d="M74.9146 4.7699L74.9131 4.76836C71.3913 1.27723 65.8365 0.239171 58.998 1.59769C58.419 1.70966 57.9711 2.1576 57.8591 2.7366C56.5007 9.58915 57.5382 15.131 61.0459 18.6386C63.5707 21.1634 67.1115 22.4038 71.4822 22.4038H71.4968C73.1969 22.4038 75.0387 22.2101 76.9628 21.8254C77.5417 21.7133 77.9895 21.2654 78.1014 20.6865C79.4598 13.8342 78.4224 8.27768 74.9146 4.7699ZM63.1104 16.5895C60.5555 14.0207 59.6093 9.81786 60.5332 4.25993C66.0871 3.33134 70.323 4.27699 72.8797 6.81944C75.434 9.38804 76.367 13.5911 75.4414 19.1657C74.0477 19.3973 72.7215 19.5069 71.4968 19.5069C67.8225 19.5069 65.0185 18.4974 63.1104 16.5895Z" fill="#4677BC" stroke="#4677BC"/>
<path d="M75.6301 21.4036L75.6302 21.4036L67.4155 12.8387C67.4154 12.8387 67.4154 12.8386 67.4153 12.8385C66.8574 12.258 66.8822 11.3435 67.4586 10.7893C68.039 10.2312 68.9537 10.256 69.508 10.8324L69.5084 10.8328L77.723 19.3977L75.6301 21.4036ZM75.6301 21.4036L75.6375 21.411M75.6301 21.4036L75.6375 21.411M75.6375 21.411C75.9176 21.6911 76.2915 21.8493 76.6768 21.8493C77.0375 21.8493 77.3917 21.7134 77.6726 21.454L77.6727 21.4541M75.6375 21.411L77.6727 21.4541M77.6727 21.4541L77.68 21.4471M77.6727 21.4541L77.68 21.4471M77.68 21.4471C78.2563 20.8929 78.2811 19.9786 77.7235 19.3981L77.68 21.4471Z" fill="#4677BC" stroke="#4677BC"/>
</svg>
