<svg width="355" height="75" viewBox="0 0 355 75" fill="none" xmlns="http://www.w3.org/2000/svg">
<path d="M344.061 0.93934C343.475 0.353553 342.525 0.353553 341.939 0.93934L332.393 10.4853C331.808 11.0711 331.808 12.0208 332.393 12.6066C332.979 13.1924 333.929 13.1924 334.515 12.6066L343 4.12132L351.485 12.6066C352.071 13.1924 353.021 13.1924 353.607 12.6066C354.192 12.0208 354.192 11.0711 353.607 10.4853L344.061 0.93934ZM0.5 2C0.500028 27.33 22.71 45.5768 54.7637 57.3601C86.9571 69.1948 129.776 74.8044 172.511 74.4873C215.248 74.1701 258.059 67.9245 290.242 55.9343C306.331 49.9404 319.852 42.4783 329.375 33.5271C338.918 24.5566 344.5 14.03 344.5 2H341.5C341.5 12.9997 336.426 22.7823 327.32 31.3412C318.195 39.9194 305.075 47.2067 289.195 53.1231C257.441 64.9536 215.002 71.1718 172.489 71.4874C129.974 71.8029 87.5431 66.214 55.7989 54.5444C23.9151 42.8235 3.50003 25.2603 3.5 2L0.5 2Z" fill="#2E2B70"/>
</svg>
