<svg width="155" height="133" viewBox="0 0 155 133" fill="none" xmlns="http://www.w3.org/2000/svg">
<ellipse cx="77.5" cy="116.682" rx="77.5" ry="16" fill="#5AC09B" fill-opacity="0.25"/>
<circle cx="94.5" cy="39.1816" r="24.5" fill="#FBDE00"/>
<path d="M21.5477 115.02H132.452C133.857 115.02 135 113.889 135 112.494C135 111.099 133.857 109.968 132.452 109.968H104.959V40.2717C104.959 38.8763 103.819 37.7455 102.412 37.7455H90.8424V15.4292C90.8424 14.0338 89.6994 12.9031 88.2947 12.9031H79.5477V2.52613C79.5477 1.13072 78.4073 0 77 0C75.5927 0 74.4523 1.13072 74.4523 2.52613V12.9031H65.7079C64.3006 12.9031 63.1602 14.0338 63.1602 15.4292V37.7455H51.5882C50.1835 37.7455 49.0406 38.8763 49.0406 40.2717V109.965H21.5477C20.1404 109.965 19 111.096 19 112.491C19 113.887 20.1404 115.018 21.5477 115.018V115.02ZM68.2556 17.9553H85.747V37.7455H68.2556V17.9553ZM54.1359 42.7978H99.8641V109.965H54.1359V42.7978Z" fill="#4677BC"/>
<path d="M39.324 118.854C37.9193 118.854 36.7764 119.985 36.7764 121.38C36.7764 122.776 37.9193 123.906 39.324 123.906H114.673C116.078 123.906 117.221 122.776 117.221 121.38C117.221 119.985 116.078 118.854 114.673 118.854H39.324Z" fill="#4677BC"/>
<path d="M65.7054 47.516C64.2981 47.516 63.1577 48.6467 63.1577 50.0421V102.718C63.1577 104.114 64.2981 105.244 65.7054 105.244C67.1127 105.244 68.253 104.114 68.253 102.718V50.0447C68.253 48.6493 67.1101 47.5186 65.7054 47.5186V47.516Z" fill="#4677BC"/>
<path d="M77 47.516C75.5927 47.516 74.4524 48.6467 74.4524 50.0421V102.718C74.4524 104.114 75.5953 105.244 77 105.244C78.4048 105.244 79.5477 104.114 79.5477 102.718V50.0447C79.5477 48.6493 78.4073 47.5186 77 47.5186V47.516Z" fill="#4677BC"/>
<path d="M81.4708 21.2241H72.5293C71.122 21.2241 69.9817 22.3549 69.9817 23.7503C69.9817 25.1457 71.122 26.2764 72.5293 26.2764H81.4708C82.8781 26.2764 84.0184 25.1457 84.0184 23.7503C84.0184 22.3549 82.8781 21.2241 81.4708 21.2241Z" fill="#4677BC"/>
<path d="M81.4708 29.2086H72.5293C71.122 29.2086 69.9817 30.3393 69.9817 31.7347C69.9817 33.1301 71.122 34.2609 72.5293 34.2609H81.4708C82.8781 34.2609 84.0184 33.1301 84.0184 31.7347C84.0184 30.3393 82.8781 29.2086 81.4708 29.2086Z" fill="#4677BC"/>
<path d="M88.295 47.516C86.8851 47.516 85.7473 48.6467 85.7473 50.0421V102.718C85.7473 104.114 86.8877 105.244 88.295 105.244C89.7023 105.244 90.8426 104.114 90.8426 102.718V50.0447C90.8426 48.6493 89.6997 47.5186 88.295 47.5186V47.516Z" fill="#4677BC"/>
</svg>
