<svg width="155" height="123" viewBox="0 0 155 123" fill="none" xmlns="http://www.w3.org/2000/svg">
<ellipse cx="77.5" cy="106.682" rx="77.5" ry="16" fill="#5AC09B" fill-opacity="0.25"/>
<circle cx="109.5" cy="20.1816" r="18.5" fill="#FBDE00"/>
<path d="M34.949 59.6775C40.1697 56.6992 48.999 51.8136 55.6543 49.7303C56.5861 49.4369 57.4882 49.2168 58.3312 49.0408C59.8693 48.7473 62.1026 48.5859 64.7351 48.6006C66.6282 48.6006 68.7135 48.7033 70.9171 48.8794C72.2038 48.9967 73.5201 49.1288 74.8511 49.2902C76.9069 49.5543 78.9626 49.877 81.0036 50.2878C82.3642 50.5666 83.6953 50.86 84.9968 51.2121C87.1117 51.7843 89.1378 52.4445 90.9421 53.2221C92.3915 53.8236 93.693 54.4985 94.8318 55.2467C97.1242 56.7726 98.6623 58.5771 98.9877 60.6752C99.1799 61.8489 99.0764 62.8172 98.7362 63.6241C95.9114 70.2556 76.685 64.6217 72.7658 63.6094" stroke="#4677BC" stroke-width="5" stroke-linecap="round" stroke-linejoin="round"/>
<path d="M49.2207 82.5795C70.4289 74.3782 73.9044 85.5431 91.1047 84.2667C101.147 83.5331 134.586 64.6658 134.024 57.1687C133.684 52.5179 128.286 52.1804 124.633 52.6499C124.573 52.6499 124.529 52.6499 124.47 52.6646C120.846 53.1634 116.114 54.6452 111.514 56.5672C109.34 57.4621 107.181 58.4744 105.199 59.5161C103.838 60.235 102.567 60.9539 101.413 61.7021C100.407 62.3477 99.4903 62.9932 98.6917 63.6241" stroke="#4677BC" stroke-width="5" stroke-linecap="round" stroke-linejoin="round"/>
<path d="M49.2208 82.5795L49.9899 88.4334L22.3926 100.728L18.9614 64.5777L34.9489 59.6775L49.2208 82.5795Z" stroke="#4677BC" stroke-width="5" stroke-linecap="round" stroke-linejoin="round"/>
<path d="M36.6202 80.7162C38.1583 80.5402 39.5189 81.6258 39.6964 83.1517C39.8739 84.6628 38.7942 86.0273 37.2413 86.2033C35.7032 86.3794 34.3426 85.279 34.1651 83.7679C33.9876 82.242 35.0821 80.8923 36.6202 80.7162Z" stroke="#4677BC" stroke-width="5" stroke-linecap="round" stroke-linejoin="round"/>
<path d="M105.214 59.5161V17.1892H111.425V56.3178" stroke="#4677BC" stroke-width="2" stroke-linecap="round" stroke-linejoin="round"/>
<path d="M95.1128 54.8506V22.691H101.295V61.4674" stroke="#4677BC" stroke-width="2" stroke-linecap="round" stroke-linejoin="round"/>
<path d="M84.9819 51.2562V51.2121V28.002H91.164V52.6793" stroke="#4677BC" stroke-width="2" stroke-linecap="round" stroke-linejoin="round"/>
<path d="M74.866 49.2022V35.4404H81.048V50.1118" stroke="#4677BC" stroke-width="2" stroke-linecap="round" stroke-linejoin="round"/>
<path d="M64.7351 48.7033V48.6006V43.2016H70.9319V48.7914" stroke="#4677BC" stroke-width="2" stroke-linecap="round" stroke-linejoin="round"/>
<path d="M55.6838 49.833C55.6838 49.833 55.6542 49.7597 55.6542 49.7303C54.5302 46.3412 54.0273 42.7027 54.0273 38.9762C54.0273 18.8911 70.4437 2.63525 90.6758 2.63525C110.908 2.63525 127.309 18.8911 127.309 38.9762C127.309 43.8178 126.348 48.4246 124.633 52.6353C124.633 52.6499 124.618 52.6499 124.618 52.6646" stroke="#4677BC" stroke-width="5" stroke-linecap="round" stroke-linejoin="round"/>
</svg>
