<svg width="155" height="130" viewBox="0 0 155 130" fill="none" xmlns="http://www.w3.org/2000/svg">
<ellipse cx="77.5" cy="113.682" rx="77.5" ry="16" fill="#5AC09B" fill-opacity="0.25"/>
<circle cx="61" cy="27.6816" r="21" fill="#FBDE00"/>
<path d="M119.598 120.682C120.952 120.682 122.044 119.587 122.044 118.235C122.044 116.884 120.952 115.789 119.598 115.789H36.401C35.0496 115.789 33.9546 116.884 33.9546 118.235C33.9546 119.587 35.0496 120.682 36.401 120.682H119.598Z" fill="#4677BC"/>
<path d="M135.553 105.543H120.07V74.1095C120.07 73.1887 119.555 72.345 118.731 71.9269L93.6548 59.1819V3.12765C93.6548 2.27649 93.2118 1.48756 92.49 1.04207C91.7633 0.599071 90.8574 0.56174 90.1008 0.945008L63.6851 14.3743C62.8639 14.7925 62.3462 15.6337 62.3462 16.5545V40.5212L37.267 53.2687C36.4482 53.6843 35.928 54.528 35.928 55.4488V105.54H20.4455C19.0941 105.54 17.999 106.635 17.999 107.986C17.999 109.338 19.0941 110.433 20.4455 110.433H135.553C136.907 110.433 137.999 109.338 137.999 107.986C137.999 106.635 136.907 105.54 135.553 105.54V105.543ZM62.3462 105.543H40.8209V56.952L62.3437 46.0114V105.543H62.3462ZM88.7594 60.6727V105.543H67.2391V18.0577L88.7594 7.11713V60.6702V60.6727ZM115.175 105.543H93.6548V64.6696L115.175 75.6102V105.543Z" fill="#4677BC"/>
<path d="M100.312 102.125C101.325 102.125 102.149 101.304 102.149 100.289V73.6292C102.149 72.6138 101.328 71.7925 100.312 71.7925C99.2968 71.7925 98.478 72.6138 98.478 73.6292V100.289C98.478 101.302 99.2993 102.125 100.312 102.125Z" fill="#4677BC"/>
<path d="M108.515 102.125C109.528 102.125 110.352 101.304 110.352 100.289V81.3767C110.352 80.3612 109.53 79.5399 108.515 79.5399C107.499 79.5399 106.681 80.3612 106.681 81.3767V100.289C106.681 101.302 107.502 102.125 108.515 102.125Z" fill="#4677BC"/>
<path d="M55.6868 102.125C56.6997 102.125 57.521 101.304 57.521 100.289V55.5583C57.521 54.5428 56.6997 53.724 55.6868 53.724C54.6738 53.724 53.8525 54.5453 53.8525 55.5583V100.289C53.8525 101.302 54.6738 102.125 55.6868 102.125Z" fill="#4677BC"/>
<path d="M47.4831 102.125C48.4961 102.125 49.3174 101.304 49.3174 100.289V63.3058C49.3174 62.2904 48.4961 61.4716 47.4831 61.4716C46.4702 61.4716 45.6489 62.2929 45.6489 63.3058V100.289C45.6489 101.302 46.4702 102.125 47.4831 102.125Z" fill="#4677BC"/>
<path d="M82.4353 102.125C83.4483 102.125 84.2696 101.304 84.2696 100.289V17.2488C84.2696 16.2334 83.4483 15.4146 82.4353 15.4146C81.4224 15.4146 80.5986 16.2359 80.5986 17.2488V100.291C80.5986 101.304 81.4199 102.128 82.4353 102.128V102.125Z" fill="#4677BC"/>
<path d="M73.5627 102.125C74.5757 102.125 75.3969 101.304 75.3969 100.289V25.4045C75.3969 24.3916 74.5757 23.5678 73.5627 23.5678C72.5498 23.5678 71.7285 24.3891 71.7285 25.4045V100.291C71.7285 101.304 72.5498 102.128 73.5627 102.128V102.125Z" fill="#4677BC"/>
</svg>
