<svg width="333" height="71" viewBox="0 0 333 71" fill="none" xmlns="http://www.w3.org/2000/svg">
<path d="M322.061 70.0607C321.475 70.6464 320.525 70.6464 319.939 70.0607L310.393 60.5147C309.808 59.9289 309.808 58.9792 310.393 58.3934C310.979 57.8076 311.929 57.8076 312.515 58.3934L321 66.8787L329.485 58.3934C330.071 57.8076 331.021 57.8076 331.607 58.3934C332.192 58.9792 332.192 59.9289 331.607 60.5147L322.061 70.0607ZM0.5 69C0.500026 45.046 21.3238 27.8051 51.3223 16.6809C81.4545 5.50704 121.525 0.212654 161.511 0.512009C201.499 0.811378 241.562 6.70617 271.684 18.0265C286.742 23.6856 299.404 30.7333 308.325 39.192C317.266 47.6702 322.5 57.6235 322.5 69H319.5C319.5 58.6442 314.765 49.4325 306.261 41.3689C297.736 33.2858 285.477 26.415 270.629 20.8348C240.938 9.67652 201.251 3.8096 161.489 3.51192C121.725 3.21424 82.0456 8.48749 52.3653 19.4937C22.5513 30.5496 3.50002 47.1013 3.5 69L0.5 69Z" fill="#2E2B70"/>
</svg>
